<mxfile host="app.diagrams.net" agent="Mozilla/5.0 (X11; Linux x86_64; rv:135.0) Gecko/20100101 Firefox/135.0" version="26.0.16">
  <diagram id="C5RBs43oDa-KdzZeNtuy" name="Page-1">
    <mxGraphModel dx="1434" dy="1990" grid="1" gridSize="10" guides="1" tooltips="1" connect="1" arrows="1" fold="1" page="1" pageScale="1" pageWidth="827" pageHeight="1169" math="0" shadow="0">
      <root>
        <mxCell id="WIyWlLk6GJQsqaUBKTNV-0" />
        <mxCell id="WIyWlLk6GJQsqaUBKTNV-1" parent="WIyWlLk6GJQsqaUBKTNV-0" />
        <mxCell id="5gMt348uaMmcIq_buyB--11" style="edgeStyle=orthogonalEdgeStyle;rounded=0;orthogonalLoop=1;jettySize=auto;html=1;exitX=0.5;exitY=1;exitDx=0;exitDy=0;entryX=0.5;entryY=0;entryDx=0;entryDy=0;" edge="1" parent="WIyWlLk6GJQsqaUBKTNV-1" source="5gMt348uaMmcIq_buyB--0" target="5gMt348uaMmcIq_buyB--9">
          <mxGeometry relative="1" as="geometry" />
        </mxCell>
        <mxCell id="5gMt348uaMmcIq_buyB--0" value="Program initialized" style="rounded=1;whiteSpace=wrap;html=1;" vertex="1" parent="WIyWlLk6GJQsqaUBKTNV-1">
          <mxGeometry x="180" y="-140" width="120" height="60" as="geometry" />
        </mxCell>
        <mxCell id="5gMt348uaMmcIq_buyB--5" style="edgeStyle=orthogonalEdgeStyle;rounded=0;orthogonalLoop=1;jettySize=auto;html=1;exitX=1;exitY=0.5;exitDx=0;exitDy=0;entryX=0;entryY=0.5;entryDx=0;entryDy=0;" edge="1" parent="WIyWlLk6GJQsqaUBKTNV-1" source="5gMt348uaMmcIq_buyB--1" target="5gMt348uaMmcIq_buyB--4">
          <mxGeometry relative="1" as="geometry" />
        </mxCell>
        <mxCell id="5gMt348uaMmcIq_buyB--14" style="edgeStyle=orthogonalEdgeStyle;rounded=0;orthogonalLoop=1;jettySize=auto;html=1;exitX=0.5;exitY=1;exitDx=0;exitDy=0;entryX=0.5;entryY=0;entryDx=0;entryDy=0;" edge="1" parent="WIyWlLk6GJQsqaUBKTNV-1" source="5gMt348uaMmcIq_buyB--1" target="5gMt348uaMmcIq_buyB--2">
          <mxGeometry relative="1" as="geometry" />
        </mxCell>
        <mxCell id="5gMt348uaMmcIq_buyB--1" value="Fork Display" style="rounded=1;whiteSpace=wrap;html=1;" vertex="1" parent="WIyWlLk6GJQsqaUBKTNV-1">
          <mxGeometry x="180" y="260" width="120" height="60" as="geometry" />
        </mxCell>
        <mxCell id="5gMt348uaMmcIq_buyB--15" style="edgeStyle=orthogonalEdgeStyle;rounded=0;orthogonalLoop=1;jettySize=auto;html=1;exitX=0.5;exitY=1;exitDx=0;exitDy=0;entryX=0.5;entryY=0;entryDx=0;entryDy=0;" edge="1" parent="WIyWlLk6GJQsqaUBKTNV-1" source="5gMt348uaMmcIq_buyB--2" target="5gMt348uaMmcIq_buyB--3">
          <mxGeometry relative="1" as="geometry" />
        </mxCell>
        <mxCell id="5gMt348uaMmcIq_buyB--16" style="edgeStyle=orthogonalEdgeStyle;rounded=0;orthogonalLoop=1;jettySize=auto;html=1;exitX=1;exitY=0.5;exitDx=0;exitDy=0;entryX=0;entryY=0.5;entryDx=0;entryDy=0;" edge="1" parent="WIyWlLk6GJQsqaUBKTNV-1" source="5gMt348uaMmcIq_buyB--2" target="5gMt348uaMmcIq_buyB--8">
          <mxGeometry relative="1" as="geometry" />
        </mxCell>
        <mxCell id="5gMt348uaMmcIq_buyB--2" value="Fork Hardware" style="rounded=1;whiteSpace=wrap;html=1;" vertex="1" parent="WIyWlLk6GJQsqaUBKTNV-1">
          <mxGeometry x="180" y="400" width="120" height="60" as="geometry" />
        </mxCell>
        <mxCell id="5gMt348uaMmcIq_buyB--17" style="edgeStyle=orthogonalEdgeStyle;rounded=0;orthogonalLoop=1;jettySize=auto;html=1;exitX=1;exitY=0.5;exitDx=0;exitDy=0;entryX=0;entryY=0.5;entryDx=0;entryDy=0;" edge="1" parent="WIyWlLk6GJQsqaUBKTNV-1" source="5gMt348uaMmcIq_buyB--3" target="5gMt348uaMmcIq_buyB--7">
          <mxGeometry relative="1" as="geometry" />
        </mxCell>
        <mxCell id="5gMt348uaMmcIq_buyB--3" value="Fork Vision" style="rounded=1;whiteSpace=wrap;html=1;" vertex="1" parent="WIyWlLk6GJQsqaUBKTNV-1">
          <mxGeometry x="180" y="525" width="120" height="60" as="geometry" />
        </mxCell>
        <mxCell id="5gMt348uaMmcIq_buyB--19" style="edgeStyle=orthogonalEdgeStyle;rounded=0;orthogonalLoop=1;jettySize=auto;html=1;exitX=1;exitY=0.5;exitDx=0;exitDy=0;entryX=0;entryY=0.5;entryDx=0;entryDy=0;" edge="1" parent="WIyWlLk6GJQsqaUBKTNV-1" source="5gMt348uaMmcIq_buyB--4" target="5gMt348uaMmcIq_buyB--18">
          <mxGeometry relative="1" as="geometry" />
        </mxCell>
        <mxCell id="5gMt348uaMmcIq_buyB--4" value="Enter display" style="rounded=1;whiteSpace=wrap;html=1;" vertex="1" parent="WIyWlLk6GJQsqaUBKTNV-1">
          <mxGeometry x="414" y="260" width="120" height="60" as="geometry" />
        </mxCell>
        <mxCell id="5gMt348uaMmcIq_buyB--7" value="Enter Vision" style="rounded=1;whiteSpace=wrap;html=1;" vertex="1" parent="WIyWlLk6GJQsqaUBKTNV-1">
          <mxGeometry x="424" y="525" width="120" height="60" as="geometry" />
        </mxCell>
        <mxCell id="5gMt348uaMmcIq_buyB--8" value="Enter Hardware" style="rounded=1;whiteSpace=wrap;html=1;" vertex="1" parent="WIyWlLk6GJQsqaUBKTNV-1">
          <mxGeometry x="424" y="400" width="120" height="60" as="geometry" />
        </mxCell>
        <mxCell id="5gMt348uaMmcIq_buyB--12" style="edgeStyle=orthogonalEdgeStyle;rounded=0;orthogonalLoop=1;jettySize=auto;html=1;exitX=0.5;exitY=1;exitDx=0;exitDy=0;entryX=0.5;entryY=0;entryDx=0;entryDy=0;" edge="1" parent="WIyWlLk6GJQsqaUBKTNV-1" source="5gMt348uaMmcIq_buyB--9" target="5gMt348uaMmcIq_buyB--10">
          <mxGeometry relative="1" as="geometry" />
        </mxCell>
        <mxCell id="5gMt348uaMmcIq_buyB--9" value="Create zeroMQ context" style="rounded=1;whiteSpace=wrap;html=1;" vertex="1" parent="WIyWlLk6GJQsqaUBKTNV-1">
          <mxGeometry x="180" y="-20" width="120" height="60" as="geometry" />
        </mxCell>
        <mxCell id="5gMt348uaMmcIq_buyB--13" style="edgeStyle=orthogonalEdgeStyle;rounded=0;orthogonalLoop=1;jettySize=auto;html=1;exitX=0.5;exitY=1;exitDx=0;exitDy=0;entryX=0.5;entryY=0;entryDx=0;entryDy=0;" edge="1" parent="WIyWlLk6GJQsqaUBKTNV-1" source="5gMt348uaMmcIq_buyB--10" target="5gMt348uaMmcIq_buyB--1">
          <mxGeometry relative="1" as="geometry" />
        </mxCell>
        <mxCell id="5gMt348uaMmcIq_buyB--10" value="Define endpoints for display, vision, and hardware" style="rounded=1;whiteSpace=wrap;html=1;" vertex="1" parent="WIyWlLk6GJQsqaUBKTNV-1">
          <mxGeometry x="180" y="120" width="120" height="60" as="geometry" />
        </mxCell>
        <mxCell id="5gMt348uaMmcIq_buyB--28" style="edgeStyle=orthogonalEdgeStyle;rounded=0;orthogonalLoop=1;jettySize=auto;html=1;exitX=1;exitY=0.5;exitDx=0;exitDy=0;entryX=0;entryY=0.5;entryDx=0;entryDy=0;" edge="1" parent="WIyWlLk6GJQsqaUBKTNV-1" source="5gMt348uaMmcIq_buyB--18" target="5gMt348uaMmcIq_buyB--20">
          <mxGeometry relative="1" as="geometry" />
        </mxCell>
        <mxCell id="5gMt348uaMmcIq_buyB--18" value="Define engine endpoint" style="rounded=1;whiteSpace=wrap;html=1;" vertex="1" parent="WIyWlLk6GJQsqaUBKTNV-1">
          <mxGeometry x="707" y="260" width="120" height="60" as="geometry" />
        </mxCell>
        <mxCell id="5gMt348uaMmcIq_buyB--29" style="edgeStyle=orthogonalEdgeStyle;rounded=0;orthogonalLoop=1;jettySize=auto;html=1;exitX=1;exitY=0.5;exitDx=0;exitDy=0;entryX=0;entryY=0.5;entryDx=0;entryDy=0;" edge="1" parent="WIyWlLk6GJQsqaUBKTNV-1" source="5gMt348uaMmcIq_buyB--20" target="5gMt348uaMmcIq_buyB--21">
          <mxGeometry relative="1" as="geometry" />
        </mxCell>
        <mxCell id="5gMt348uaMmcIq_buyB--20" value="Fork engine process" style="rounded=1;whiteSpace=wrap;html=1;" vertex="1" parent="WIyWlLk6GJQsqaUBKTNV-1">
          <mxGeometry x="1010" y="260" width="120" height="60" as="geometry" />
        </mxCell>
        <mxCell id="5gMt348uaMmcIq_buyB--24" style="edgeStyle=orthogonalEdgeStyle;rounded=0;orthogonalLoop=1;jettySize=auto;html=1;exitX=1;exitY=0.5;exitDx=0;exitDy=0;entryX=0;entryY=0.5;entryDx=0;entryDy=0;" edge="1" parent="WIyWlLk6GJQsqaUBKTNV-1" source="5gMt348uaMmcIq_buyB--21" target="5gMt348uaMmcIq_buyB--22">
          <mxGeometry relative="1" as="geometry" />
        </mxCell>
        <mxCell id="5gMt348uaMmcIq_buyB--26" value="No" style="edgeLabel;html=1;align=center;verticalAlign=middle;resizable=0;points=[];" vertex="1" connectable="0" parent="5gMt348uaMmcIq_buyB--24">
          <mxGeometry x="-0.0885" y="2" relative="1" as="geometry">
            <mxPoint as="offset" />
          </mxGeometry>
        </mxCell>
        <mxCell id="5gMt348uaMmcIq_buyB--25" style="edgeStyle=orthogonalEdgeStyle;rounded=0;orthogonalLoop=1;jettySize=auto;html=1;exitX=0.5;exitY=1;exitDx=0;exitDy=0;entryX=0;entryY=0.5;entryDx=0;entryDy=0;" edge="1" parent="WIyWlLk6GJQsqaUBKTNV-1" source="5gMt348uaMmcIq_buyB--21" target="5gMt348uaMmcIq_buyB--23">
          <mxGeometry relative="1" as="geometry" />
        </mxCell>
        <mxCell id="5gMt348uaMmcIq_buyB--27" value="Yes" style="edgeLabel;html=1;align=center;verticalAlign=middle;resizable=0;points=[];" vertex="1" connectable="0" parent="5gMt348uaMmcIq_buyB--25">
          <mxGeometry x="0.31" y="-2" relative="1" as="geometry">
            <mxPoint as="offset" />
          </mxGeometry>
        </mxCell>
        <mxCell id="5gMt348uaMmcIq_buyB--21" value="In engine process?" style="rhombus;whiteSpace=wrap;html=1;" vertex="1" parent="WIyWlLk6GJQsqaUBKTNV-1">
          <mxGeometry x="1300" y="250" width="80" height="80" as="geometry" />
        </mxCell>
        <mxCell id="5gMt348uaMmcIq_buyB--22" value="Create display handler and loop calling handle external/engine" style="rounded=1;whiteSpace=wrap;html=1;" vertex="1" parent="WIyWlLk6GJQsqaUBKTNV-1">
          <mxGeometry x="1560" y="260" width="200" height="60" as="geometry" />
        </mxCell>
        <mxCell id="5gMt348uaMmcIq_buyB--23" value="Engine entry" style="rounded=1;whiteSpace=wrap;html=1;" vertex="1" parent="WIyWlLk6GJQsqaUBKTNV-1">
          <mxGeometry x="1560" y="390" width="120" height="60" as="geometry" />
        </mxCell>
      </root>
    </mxGraphModel>
  </diagram>
</mxfile>
